<svg xmlns="http://www.w3.org/2000/svg" width="157" height="150" viewBox="0 0 157 150">
    <g fill="none" fill-rule="evenodd">
        <g fill-rule="nonzero">
            <g>
                <g>
                    <g transform="translate(-746 -292) translate(404 189) translate(307 103) translate(35.5)">
                        <path fill="#E6E6E6" d="M85.775 53.822H52.27c-1.486.005-2.891-.676-3.809-1.846-.934-1.18-1.271-2.725-.914-4.188 3.088-12.934 3.088-26.413 0-39.347-.357-1.463-.02-3.008.914-4.188.917-1.17 2.323-1.85 3.81-1.846h33.504c2.39.007 4.422 1.74 4.806 4.099 2.205 14.321 2.205 28.896 0 43.217-.384 2.358-2.417 4.092-4.806 4.1z"/>
                        <path fill="#FFF" d="M52.27 4.928c-.714-.003-1.389.324-1.83.886-.453.575-.617 1.327-.442 2.039 3.18 13.32 3.18 27.203 0 40.523-.175.712-.011 1.464.443 2.039.44.562 1.115.889 1.83.886h33.504c1.147 0 2.127-.829 2.315-1.96 2.166-14.068 2.166-28.385 0-42.452-.188-1.132-1.168-1.961-2.315-1.961H52.27z"/>
                        <path fill="#E6E6E6" d="M78.464 17.05H60.882c-1.392-.002-2.52-1.13-2.521-2.521v-.985c.001-1.392 1.129-2.52 2.52-2.521h17.583c1.391.001 2.519 1.13 2.52 2.52v.986c-.001 1.392-1.129 2.52-2.52 2.52zM78.464 29.498H60.882c-1.392-.002-2.52-1.13-2.521-2.521v-.985c.001-1.392 1.129-2.52 2.52-2.521h17.583c1.391.001 2.519 1.129 2.52 2.52v.986c-.001 1.391-1.129 2.52-2.52 2.52zM78.464 41.946H60.882c-1.392-.002-2.52-1.13-2.521-2.521v-.986c.001-1.391 1.129-2.519 2.52-2.52h17.583c1.391.001 2.519 1.129 2.52 2.52v.986c-.001 1.391-1.129 2.519-2.52 2.52zM148.8 85.755h-33.505c-1.486.005-2.891-.676-3.809-1.846-.934-1.18-1.271-2.726-.914-4.188 3.088-12.934 3.088-26.413 0-39.348-.357-1.462-.02-3.007.914-4.187.918-1.17 2.323-1.851 3.81-1.847H148.8c2.39.007 4.423 1.741 4.807 4.1 2.205 14.32 2.205 28.896 0 43.217-.384 2.358-2.418 4.092-4.807 4.1z"/>
                        <path fill="#FFF" d="M115.295 36.86c-.713-.002-1.388.325-1.83.886-.453.576-.616 1.328-.442 2.04 3.18 13.32 3.18 27.202 0 40.523-.174.711-.011 1.464.443 2.039.44.562 1.116.889 1.83.886H148.8c1.148 0 2.127-.83 2.315-1.96 2.166-14.069 2.166-28.385 0-42.453-.188-1.131-1.167-1.96-2.315-1.96h-33.505z"/>
                        <path fill="#F2F2F2" d="M81.994 122.1H48.489c-1.55.004-3.017-.706-3.974-1.926-.974-1.231-1.326-2.843-.954-4.368 3.08-12.901 3.08-26.347 0-39.249-.372-1.525-.02-3.136.954-4.367.957-1.22 2.423-1.93 3.974-1.926h33.505c2.492.007 4.613 1.817 5.013 4.277 2.209 14.343 2.209 28.939 0 43.282-.4 2.46-2.521 4.27-5.013 4.277z"/>
                        <path fill="#E6E6E6" d="M141.489 55.285h-17.582c-1.392-.001-2.52-1.13-2.521-2.52v-.986c.001-1.392 1.13-2.52 2.52-2.52h17.583c1.391 0 2.52 1.128 2.52 2.52v.985c0 1.392-1.129 2.52-2.52 2.521zM141.489 67.733h-17.582c-1.392-.002-2.52-1.13-2.521-2.52v-.986c.001-1.392 1.13-2.52 2.52-2.521h17.583c1.391.002 2.52 1.13 2.52 2.52v.986c0 1.392-1.129 2.52-2.52 2.521z"/>
                        <circle cx="65.335" cy="96.008" r="9.664" fill="#FFF"/>
                        <path fill="#E6E6E6" d="M69.957 94.748h-3.362v-3.361c0-.697-.564-1.26-1.26-1.26-.696 0-1.26.563-1.26 1.26v3.36h-3.362c-.696 0-1.26.565-1.26 1.261 0 .697.564 1.26 1.26 1.26h3.361v3.362c0 .696.565 1.26 1.26 1.26.697 0 1.261-.564 1.261-1.26V97.27h3.362c.696 0 1.26-.564 1.26-1.26 0-.697-.564-1.261-1.26-1.261z"/>
                        <path fill="#CCC" d="M77.52 7.143H59.873c-1.044-.001-1.89-.847-1.891-1.89V1.89C57.983.847 58.829 0 59.872 0H77.52c1.044.001 1.89.847 1.89 1.89v3.362c0 1.044-.846 1.89-1.89 1.89zM141.385 39.496h-17.647c-1.044-.001-1.89-.847-1.89-1.891v-3.361c0-1.044.846-1.89 1.89-1.891h17.647c1.044.001 1.89.847 1.891 1.89v3.362c-.001 1.044-.847 1.89-1.89 1.89z"/>
                        <path fill="#E6E6E6" d="M33.934 149.572l-30.94-12.855c-1.375-.566-2.411-1.734-2.81-3.166-.41-1.449-.128-3.005.763-4.219 7.814-10.759 12.986-23.207 15.097-36.336.231-1.487 1.136-2.784 2.451-3.516 1.296-.728 2.855-.818 4.226-.243l30.94 12.855c2.204.923 3.416 3.304 2.866 5.63-3.458 14.07-9.05 27.53-16.582 39.91-1.259 2.03-3.802 2.85-6.01 1.94z"/>
                        <path fill="#FFF" d="M21.754 91.565c-.659-.276-1.407-.233-2.03.116-.64.357-1.08.989-1.191 1.713-2.174 13.521-7.5 26.341-15.548 37.422-.434.59-.572 1.347-.374 2.053.192.688.69 1.248 1.35 1.52l30.94 12.855c1.06.44 2.282.05 2.89-.922 7.398-12.16 12.89-25.381 16.288-39.203.26-1.117-.325-2.26-1.385-2.699l-30.94-12.855z"/>
                        <path fill="#006FFF" d="M38.228 120.181l-16.236-6.746c-1.285-.535-1.893-2.01-1.36-3.295l.377-.91c.536-1.284 2.01-1.893 3.295-1.36l16.237 6.746c1.284.535 1.893 2.01 1.36 3.295l-.378.91c-.535 1.284-2.01 1.893-3.295 1.36zM33.452 131.676l-16.236-6.746c-1.285-.535-1.893-2.009-1.36-3.295l.377-.91c.535-1.284 2.01-1.893 3.295-1.36l16.237 6.746c1.284.535 1.893 2.01 1.36 3.295l-.378.91c-.535 1.284-2.01 1.893-3.295 1.36z"/>
                        <path fill="#CCC" d="M44.734 104.026c-.243 0-.484-.047-.709-.139l-16.36-6.614c-.967-.393-1.435-1.494-1.045-2.462l1.26-3.116c.392-.968 1.494-1.436 2.462-1.044l16.36 6.614c.968.393 1.435 1.494 1.045 2.462l-1.26 3.116c-.29.714-.983 1.182-1.753 1.183z"/>
                    </g>
                </g>
            </g>
        </g>
    </g>
</svg>
